<?xml version="1.0" encoding="UTF-8"?>
<svg xmlns="http://www.w3.org/2000/svg" viewBox="0 0 16 16" fill="currentColor" aria-hidden="true">
	<path d="M2 2h12v2H2zm0 4h12v2H2zm0 4h8v2H2zm10 0h2v4h-2zm0-1l-1.5 1.5L9 9l1.5-1.5L12 9z" opacity="0"/>
	<path d="M3 1.5C3 1.224 3.224 1 3.5 1h9c.276 0 .5.224.5.5V13a2 2 0 1 1-4 0V11.5h-6V13c0 .276-.224.5-.5.5h-1c-.276 0-.5-.224-.5-.5V3.5C1 2.672 1.672 2 2.5 2H3v-.5zm6 11.5a1 1 0 1 0 2 0v-1H9v1zm-6-2.5h6V3H3v7.5zM4.5 4.5h3a.5.5 0 1 1 0 1h-3a.5.5 0 1 1 0-1zm0 2h3a.5.5 0 1 1 0 1h-3a.5.5 0 1 1 0-1zm0 2h3a.5.5 0 1 1 0 1h-3a.5.5 0 1 1 0-1z"/>
</svg>
