<?xml version="1.0" encoding="UTF-8" standalone="no"?>
<!-- Created with Inkscape (http://www.inkscape.org/) -->

<svg
   width="142.86424mm"
   height="143.78351mm"
   viewBox="0 0 142.86424 143.7835"
   version="1.1"
   id="svg1"
   xml:space="preserve"
   inkscape:version="1.4.3 (fcd0343856, 2026-01-01)"
   sodipodi:docname="icon_mono.svg"
   xmlns:inkscape="http://www.inkscape.org/namespaces/inkscape"
   xmlns:sodipodi="http://sodipodi.sourceforge.net/DTD/sodipodi-0.dtd"
   xmlns="http://www.w3.org/2000/svg"
   xmlns:svg="http://www.w3.org/2000/svg"><sodipodi:namedview
     id="namedview1"
     pagecolor="#ffffff"
     bordercolor="#000000"
     borderopacity="0.25"
     inkscape:showpageshadow="2"
     inkscape:pageopacity="0.0"
     inkscape:pagecheckerboard="0"
     inkscape:deskcolor="#d1d1d1"
     inkscape:document-units="mm"
     inkscape:zoom="1.5773442"
     inkscape:cx="207.62748"
     inkscape:cy="174.66067"
     inkscape:window-width="2560"
     inkscape:window-height="2120"
     inkscape:window-x="2560"
     inkscape:window-y="1257"
     inkscape:window-maximized="0"
     inkscape:current-layer="layer2"
     showguides="false" /><defs
     id="defs1" /><g
     inkscape:groupmode="layer"
     id="layer2"
     inkscape:label="Layer 2"
     transform="translate(-45.444801,-89.613043)"><path
       id="rect16"
       style="display:inline;opacity:1;fill:#555753;fill-opacity:0.996078;stroke:none;stroke-width:0.803012;stroke-linecap:square;stroke-dasharray:none;stroke-opacity:0.996078"
       d="m 57.445148,91.142427 c -6.055494,0 -10.930599,4.8751 -10.930599,10.930603 v 8.64443 H 187.2393 v -8.64443 c 0,-6.055503 -4.87511,-10.930603 -10.9306,-10.930603 z m 17.929655,5.809464 c 2.287912,0 4.152718,1.862739 4.152718,4.150649 0,2.28792 -1.864806,4.15221 -4.152718,4.15221 -2.287912,0 -4.150134,-1.86429 -4.150134,-4.15221 0,-2.28791 1.862222,-4.150649 4.150134,-4.150649 z m 41.502377,0 c 2.28792,0 4.15014,1.862739 4.15014,4.150649 0,2.28792 -1.86222,4.15221 -4.15014,4.15221 -2.28791,0 -4.15065,-1.86429 -4.15065,-4.15221 0,-2.28791 1.86274,-4.150649 4.15065,-4.150649 z m 41.4998,0 c 2.28792,0 4.1522,1.862739 4.1522,4.150649 0,2.28792 -1.86428,4.15221 -4.1522,4.15221 -2.28791,0 -4.15014,-1.86429 -4.15014,-4.15221 0,-2.28791 1.86223,-4.150649 4.15014,-4.150649 z M 46.514549,113.1261 v 2.49597 H 187.2393 v -2.49597 z m 0,4.10156 v 103.70891 c 0,6.0555 4.875105,10.9306 10.930599,10.9306 H 176.3087 c 6.05549,0 10.9306,-4.8751 10.9306,-10.9306 V 117.22766 Z m 71.891221,4.54907 1.92753,1.59526 v 9.7038 c 2.12691,0.0886 4.2094,0.31007 6.24768,0.66456 2.0826,0.31017 4.01017,0.75359 5.7826,1.32963 1.77242,0.57604 3.36781,1.2404 4.78575,1.99368 1.41794,0.70897 2.54756,1.48457 3.38946,2.32647 0.26586,0.31017 0.22167,0.97505 -0.13281,1.99419 -0.31017,0.97484 -0.77543,2.06027 -1.39578,3.25665 -0.62035,1.15208 -1.30706,2.28221 -2.06034,3.38998 -0.75328,1.06345 -1.41816,1.86089 -1.99419,2.39261 l -3.25665,-0.53175 c -3.3676,-4.74122 -7.15622,-7.75423 -11.36572,-9.03924 v 24.32617 c 2.83588,1.06345 5.64978,2.21542 8.44135,3.45612 2.79156,1.24069 5.29512,2.76955 7.51065,4.58628 2.21553,1.81673 4.01002,3.98811 5.38365,6.51381 1.37363,2.48139 2.06034,5.51675 2.06034,9.10591 0,2.65863 -0.48761,5.36129 -1.46244,8.10855 -0.93052,2.70294 -2.37049,5.22885 -4.32015,7.57731 -1.90536,2.30415 -4.32002,4.3201 -7.24452,6.04821 -2.9245,1.6838 -6.38093,2.81394 -10.36888,3.38998 v 8.97258 c -0.79759,0.70896 -1.50665,1.21893 -2.127,1.5291 -0.62035,0.31017 -1.48433,0.59817 -2.59209,0.86403 l -1.92753,-1.59525 v -9.30538 c -4.07657,-0.0886 -7.93172,-0.70879 -11.56519,-1.86086 -3.589153,-1.19639 -7.33306,-3.03559 -11.232388,-5.51698 -0.310174,-0.22155 -0.532144,-1.01899 -0.665076,-2.39262 -0.132932,-1.37363 -0.198954,-2.96902 -0.198954,-4.78575 0.04431,-1.81674 0.132685,-3.65542 0.265616,-5.51646 0.177243,-1.90536 0.442883,-3.4784 0.797368,-4.71909 l 3.522782,0.26613 c 2.126906,4.56399 4.785898,8.15298 7.976262,10.7673 3.23467,2.61432 6.93439,4.23155 11.09958,4.8519 v -30.64051 c -2.79156,-1.01914 -5.58312,-2.08274 -8.37468,-3.1905 -2.74726,-1.15207 -5.20663,-2.5255 -7.37785,-4.12068 -2.171217,-1.59518 -3.943362,-3.52275 -5.316989,-5.78259 -1.329316,-2.30415 -1.994193,-5.11805 -1.994193,-8.44135 0,-1.90535 0.376884,-3.9213 1.130164,-6.04821 0.753279,-2.17121 2.015977,-4.20951 3.788399,-6.11487 1.816732,-1.90535 4.187214,-3.56729 7.111719,-4.98522 2.9688,-1.46225 6.64669,-2.4146 11.03343,-2.85771 v -9.37204 c 0.62035,-0.35448 1.08561,-0.64247 1.39578,-0.86403 0.35449,-0.22155 0.66483,-0.39882 0.93069,-0.53175 0.26587,-0.13293 0.55386,-0.24366 0.86403,-0.33228 0.35449,-0.13293 0.86393,-0.28784 1.52859,-0.46509 z m -4.71909,18.34462 c -2.34846,0.13293 -4.34257,0.5093 -5.98206,1.12965 -1.63949,0.62035 -2.96873,1.39595 -3.98787,2.32647 -1.01915,0.93052 -1.7724,1.97177 -2.25981,3.12384 -0.48742,1.15208 -0.73123,2.3264 -0.73123,3.52278 0,1.59518 0.3327,3.01331 0.99736,4.25401 0.66466,1.19638 1.57282,2.28181 2.7249,3.25665 1.19638,0.97483 2.56981,1.86116 4.12068,2.65875 1.59518,0.79759 3.3013,1.55084 5.11803,2.25981 z m 6.64662,37.35379 v 28.18123 c 1.63949,-0.26586 3.23489,-0.75296 4.78576,-1.46193 1.55087,-0.70897 2.90194,-1.61765 4.05401,-2.72541 1.19639,-1.15208 2.14926,-2.48131 2.85823,-3.98787 0.70897,-1.55087 1.0635,-3.25648 1.0635,-5.11752 0,-1.94966 -0.33218,-3.67814 -0.99684,-5.1847 -0.66466,-1.50655 -1.57334,-2.85814 -2.72542,-4.05453 -1.15207,-1.19638 -2.50366,-2.23763 -4.05453,-3.12384 -1.55087,-0.93052 -3.21229,-1.77215 -4.98471,-2.52543 z" /></g></svg>
